<?xml version="1.0" encoding="UTF-8" standalone="no"?>
<!DOCTYPE svg PUBLIC "-//W3C//DTD SVG 1.0//EN" "http://www.w3.org/TR/2001/PR-SVG-20010719/DTD/svg10.dtd">
<svg width="18cm" height="17cm" viewBox="326 60 355 321" xmlns="http://www.w3.org/2000/svg" xmlns:xlink="http://www.w3.org/1999/xlink">
  <g>
    <rect style="fill: #ffffff" x="422.4" y="61" width="81.2" height="38"/>
    <rect style="fill: none; fill-opacity:0; stroke-width: 2; stroke: #000000" x="422.4" y="61" width="81.2" height="38"/>
    <text style="fill: #000000;text-anchor:middle;font-size:12.8;font-family:sanserif;font-style:normal;font-weight:normal" x="463" y="83.9">
      <tspan x="463" y="83.9">libgrbase</tspan>
    </text>
  </g>
  <g>
    <rect style="fill: #ffffff" x="418.05" y="342" width="91.9" height="38"/>
    <rect style="fill: none; fill-opacity:0; stroke-width: 2; stroke: #000000" x="418.05" y="342" width="91.9" height="38"/>
    <text style="fill: #000000;text-anchor:middle;font-size:12.8;font-family:sanserif;font-style:normal;font-weight:normal" x="464" y="364.9">
      <tspan x="464" y="364.9">mod_video</tspan>
    </text>
  </g>
  <g>
    <rect style="fill: #ffffff" x="424.25" y="263" width="79.5" height="38"/>
    <rect style="fill: none; fill-opacity:0; stroke-width: 2; stroke: #000000" x="424.25" y="263" width="79.5" height="38"/>
    <text style="fill: #000000;text-anchor:middle;font-size:12.8;font-family:sanserif;font-style:normal;font-weight:normal" x="464" y="285.9">
      <tspan x="464" y="285.9">librender</tspan>
    </text>
  </g>
  <g>
    <rect style="fill: #ffffff" x="580.85" y="178" width="72.3" height="38"/>
    <rect style="fill: none; fill-opacity:0; stroke-width: 2; stroke: #000000" x="580.85" y="178" width="72.3" height="38"/>
    <text style="fill: #000000;text-anchor:middle;font-size:12.8;font-family:sanserif;font-style:normal;font-weight:normal" x="617" y="200.9">
      <tspan x="617" y="200.9">libvideo</tspan>
    </text>
  </g>
  <g>
    <path style="fill: none; fill-opacity:0; stroke-width: 2; stroke: #000000" d="M 464 342 C 388,319 390,235 458.395,107.578"/>
    <polygon style="fill: #000000" points="461.942,100.97 461.619,112.146 458.395,107.578 452.808,107.416 "/>
    <polygon style="fill: none; fill-opacity:0; stroke-width: 2; stroke: #000000" points="461.942,100.97 461.619,112.146 458.395,107.578 452.808,107.416 "/>
  </g>
  <g>
    <path style="fill: none; fill-opacity:0; stroke-width: 2; stroke: #000000" d="M 464 342 C 465,317 463,336 463.722,310.732"/>
    <polygon style="fill: #000000" points="463.936,303.235 468.649,313.374 463.722,310.732 458.653,313.088 "/>
    <polygon style="fill: none; fill-opacity:0; stroke-width: 2; stroke: #000000" points="463.936,303.235 468.649,313.374 463.722,310.732 458.653,313.088 "/>
  </g>
  <g>
    <path style="fill: none; fill-opacity:0; stroke-width: 2; stroke: #000000" d="M 464 342 C 526.748,342 596,258 612.646,224.708"/>
    <polygon style="fill: #000000" points="616,218 616,229.18 612.646,224.708 607.056,224.708 "/>
    <polygon style="fill: none; fill-opacity:0; stroke-width: 2; stroke: #000000" points="616,218 616,229.18 612.646,224.708 607.056,224.708 "/>
  </g>
  <g>
    <rect style="fill: #ffffff" x="575.75" y="62" width="104.5" height="38"/>
    <rect style="fill: none; fill-opacity:0; stroke-width: 2; stroke: #000000" x="575.75" y="62" width="104.5" height="38"/>
    <text style="fill: #000000;text-anchor:middle;font-size:12.8;font-family:sanserif;font-style:normal;font-weight:normal" x="628" y="84.9">
      <tspan x="628" y="84.9">libsdlhandler</tspan>
    </text>
  </g>
  <g>
    <rect style="fill: #ffffff" x="327.25" y="174" width="57.5" height="38"/>
    <rect style="fill: none; fill-opacity:0; stroke-width: 2; stroke: #000000" x="327.25" y="174" width="57.5" height="38"/>
    <text style="fill: #000000;text-anchor:middle;font-size:12.8;font-family:sanserif;font-style:normal;font-weight:normal" x="356" y="196.9">
      <tspan x="356" y="196.9">libblit</tspan>
    </text>
  </g>
  <g>
    <path style="fill: none; fill-opacity:0; stroke-width: 2; stroke: #000000" d="M 464 263 C 431,230 435,237 392.075,199.414"/>
    <polygon style="fill: #000000" points="386.432,194.473 397.25,197.299 392.075,199.414 390.662,204.822 "/>
    <polygon style="fill: none; fill-opacity:0; stroke-width: 2; stroke: #000000" points="386.432,194.473 397.25,197.299 392.075,199.414 390.662,204.822 "/>
  </g>
  <g>
    <path style="fill: none; fill-opacity:0; stroke-width: 2; stroke: #000000" d="M 356 174 C 388,130 391,132 415.689,106.053"/>
    <polygon style="fill: #000000" points="420.859,100.62 417.588,111.311 415.689,106.053 410.343,104.418 "/>
    <polygon style="fill: none; fill-opacity:0; stroke-width: 2; stroke: #000000" points="420.859,100.62 417.588,111.311 415.689,106.053 410.343,104.418 "/>
  </g>
  <g>
    <path style="fill: none; fill-opacity:0; stroke-width: 2; stroke: #000000" d="M 464 263 C 503.176,263 620,143 626.219,109.572"/>
    <polygon style="fill: #000000" points="627.591,102.198 630.678,112.944 626.219,109.572 620.846,111.115 "/>
    <polygon style="fill: none; fill-opacity:0; stroke-width: 2; stroke: #000000" points="627.591,102.198 630.678,112.944 626.219,109.572 620.846,111.115 "/>
  </g>
  <g>
    <path style="fill: none; fill-opacity:0; stroke-width: 2; stroke: #000000" d="M 464 263 C 462,227 466,194 463.307,108.731"/>
    <polygon style="fill: #000000" points="463.071,101.235 468.384,111.072 463.307,108.731 458.389,111.388 "/>
    <polygon style="fill: none; fill-opacity:0; stroke-width: 2; stroke: #000000" points="463.071,101.235 468.384,111.072 463.307,108.731 458.389,111.388 "/>
  </g>
  <g>
    <path style="fill: none; fill-opacity:0; stroke-width: 2; stroke: #000000" d="M 617 178 C 582,154 536,126 511.079,105.233"/>
    <polygon style="fill: #000000" points="505.318,100.431 516.201,102.992 511.079,105.233 509.799,110.674 "/>
    <polygon style="fill: none; fill-opacity:0; stroke-width: 2; stroke: #000000" points="505.318,100.431 516.201,102.992 511.079,105.233 509.799,110.674 "/>
  </g>
</svg>
